<mxfile host="app.diagrams.net" modified="2022-04-18T15:43:17.132Z" agent="5.0 (Windows NT 10.0; Win64; x64) AppleWebKit/537.36 (KHTML, like Gecko) Chrome/100.0.4896.88 Safari/537.36" etag="PTJVSLr4s-vjIJPFmyGt" version="17.4.5" type="github">
  <diagram id="C5RBs43oDa-KdzZeNtuy" name="Page-1">
    <mxGraphModel dx="1108" dy="450" grid="1" gridSize="10" guides="1" tooltips="1" connect="1" arrows="1" fold="1" page="1" pageScale="1" pageWidth="827" pageHeight="1169" math="0" shadow="0">
      <root>
        <mxCell id="WIyWlLk6GJQsqaUBKTNV-0" />
        <mxCell id="WIyWlLk6GJQsqaUBKTNV-1" parent="WIyWlLk6GJQsqaUBKTNV-0" />
        <mxCell id="U_fN0v2ja6Cd9X43y3oP-18" value="" style="edgeStyle=orthogonalEdgeStyle;rounded=0;orthogonalLoop=1;jettySize=auto;html=1;entryX=0.5;entryY=0;entryDx=0;entryDy=0;" edge="1" parent="WIyWlLk6GJQsqaUBKTNV-1" source="U_fN0v2ja6Cd9X43y3oP-19" target="U_fN0v2ja6Cd9X43y3oP-25">
          <mxGeometry relative="1" as="geometry">
            <mxPoint x="230" y="270" as="targetPoint" />
          </mxGeometry>
        </mxCell>
        <mxCell id="U_fN0v2ja6Cd9X43y3oP-19" value="AX &lt;font size=&quot;1&quot;&gt;&amp;lt;&lt;/font&gt;---&amp;nbsp; (-4)" style="rounded=1;whiteSpace=wrap;html=1;fontSize=12;glass=0;strokeWidth=1;shadow=0;" vertex="1" parent="WIyWlLk6GJQsqaUBKTNV-1">
          <mxGeometry x="155" y="190" width="150" height="30" as="geometry" />
        </mxCell>
        <mxCell id="U_fN0v2ja6Cd9X43y3oP-20" value="" style="edgeStyle=orthogonalEdgeStyle;rounded=0;orthogonalLoop=1;jettySize=auto;html=1;" edge="1" parent="WIyWlLk6GJQsqaUBKTNV-1" source="U_fN0v2ja6Cd9X43y3oP-21" target="U_fN0v2ja6Cd9X43y3oP-19">
          <mxGeometry relative="1" as="geometry" />
        </mxCell>
        <mxCell id="U_fN0v2ja6Cd9X43y3oP-21" value="START" style="ellipse;whiteSpace=wrap;html=1;" vertex="1" parent="WIyWlLk6GJQsqaUBKTNV-1">
          <mxGeometry x="170" y="130" width="120" height="40" as="geometry" />
        </mxCell>
        <mxCell id="U_fN0v2ja6Cd9X43y3oP-22" style="edgeStyle=orthogonalEdgeStyle;rounded=0;orthogonalLoop=1;jettySize=auto;html=1;exitX=0.5;exitY=1;exitDx=0;exitDy=0;fontSize=9;" edge="1" parent="WIyWlLk6GJQsqaUBKTNV-1" source="U_fN0v2ja6Cd9X43y3oP-19" target="U_fN0v2ja6Cd9X43y3oP-19">
          <mxGeometry relative="1" as="geometry" />
        </mxCell>
        <mxCell id="U_fN0v2ja6Cd9X43y3oP-23" value="END" style="ellipse;whiteSpace=wrap;html=1;" vertex="1" parent="WIyWlLk6GJQsqaUBKTNV-1">
          <mxGeometry x="190" y="410" width="120" height="40" as="geometry" />
        </mxCell>
        <mxCell id="U_fN0v2ja6Cd9X43y3oP-24" value="" style="edgeStyle=orthogonalEdgeStyle;rounded=0;orthogonalLoop=1;jettySize=auto;html=1;" edge="1" parent="WIyWlLk6GJQsqaUBKTNV-1" source="U_fN0v2ja6Cd9X43y3oP-25" target="U_fN0v2ja6Cd9X43y3oP-27">
          <mxGeometry relative="1" as="geometry" />
        </mxCell>
        <mxCell id="U_fN0v2ja6Cd9X43y3oP-25" value="AX &lt;font size=&quot;1&quot;&gt;&amp;lt;&lt;/font&gt;---&amp;nbsp; AX + AX&lt;br&gt;AX&amp;nbsp;&lt;font style=&quot;font-size: 10px&quot;&gt;&amp;lt;&lt;/font&gt;&lt;font style=&quot;font-size: 12px&quot;&gt;---&lt;/font&gt;&amp;nbsp; AX + AX" style="rounded=1;whiteSpace=wrap;html=1;fontSize=12;glass=0;strokeWidth=1;shadow=0;" vertex="1" parent="WIyWlLk6GJQsqaUBKTNV-1">
          <mxGeometry x="155" y="240" width="150" height="40" as="geometry" />
        </mxCell>
        <mxCell id="U_fN0v2ja6Cd9X43y3oP-26" value="" style="edgeStyle=orthogonalEdgeStyle;rounded=0;orthogonalLoop=1;jettySize=auto;html=1;entryX=0.5;entryY=0;entryDx=0;entryDy=0;" edge="1" parent="WIyWlLk6GJQsqaUBKTNV-1" source="U_fN0v2ja6Cd9X43y3oP-27" target="U_fN0v2ja6Cd9X43y3oP-29">
          <mxGeometry relative="1" as="geometry">
            <mxPoint x="420" y="200" as="targetPoint" />
            <Array as="points">
              <mxPoint x="330" y="325" />
              <mxPoint x="330" y="160" />
              <mxPoint x="415" y="160" />
            </Array>
          </mxGeometry>
        </mxCell>
        <mxCell id="U_fN0v2ja6Cd9X43y3oP-27" value="BX&amp;nbsp;&lt;font style=&quot;font-size: 10px&quot;&gt;&amp;lt;&lt;/font&gt;&lt;font style=&quot;font-size: 13px&quot;&gt;---&lt;/font&gt;&amp;nbsp; AX&lt;br&gt;BX&amp;nbsp;&lt;font style=&quot;font-size: 10px&quot;&gt;&amp;lt;&lt;/font&gt;&lt;font style=&quot;font-size: 13px&quot;&gt;---&lt;/font&gt;&amp;nbsp; (-BX)" style="rounded=1;whiteSpace=wrap;html=1;fontSize=12;glass=0;strokeWidth=1;shadow=0;" vertex="1" parent="WIyWlLk6GJQsqaUBKTNV-1">
          <mxGeometry x="167.5" y="300" width="125" height="40" as="geometry" />
        </mxCell>
        <mxCell id="U_fN0v2ja6Cd9X43y3oP-28" value="" style="edgeStyle=orthogonalEdgeStyle;rounded=0;orthogonalLoop=1;jettySize=auto;html=1;" edge="1" parent="WIyWlLk6GJQsqaUBKTNV-1" source="U_fN0v2ja6Cd9X43y3oP-29" target="U_fN0v2ja6Cd9X43y3oP-30">
          <mxGeometry relative="1" as="geometry" />
        </mxCell>
        <mxCell id="U_fN0v2ja6Cd9X43y3oP-29" value="AX &lt;font size=&quot;1&quot;&gt;&amp;lt;&lt;/font&gt;---&amp;nbsp; AX + AX&lt;br&gt;AX&amp;nbsp;&lt;font style=&quot;font-size: 10px&quot;&gt;&amp;lt;&lt;/font&gt;&lt;font style=&quot;font-size: 12px&quot;&gt;---&lt;/font&gt;&amp;nbsp; AX + AX" style="rounded=1;whiteSpace=wrap;html=1;fontSize=12;glass=0;strokeWidth=1;shadow=0;" vertex="1" parent="WIyWlLk6GJQsqaUBKTNV-1">
          <mxGeometry x="339" y="180" width="150" height="40" as="geometry" />
        </mxCell>
        <mxCell id="U_fN0v2ja6Cd9X43y3oP-30" value="CX&amp;nbsp;&lt;font style=&quot;font-size: 10px&quot;&gt;&amp;lt;&lt;/font&gt;&lt;font style=&quot;font-size: 13px&quot;&gt;---&lt;/font&gt;&amp;nbsp; AX" style="rounded=1;whiteSpace=wrap;html=1;fontSize=12;glass=0;strokeWidth=1;shadow=0;" vertex="1" parent="WIyWlLk6GJQsqaUBKTNV-1">
          <mxGeometry x="351.5" y="240" width="125" height="30" as="geometry" />
        </mxCell>
        <mxCell id="U_fN0v2ja6Cd9X43y3oP-31" value="" style="edgeStyle=orthogonalEdgeStyle;rounded=0;orthogonalLoop=1;jettySize=auto;html=1;" edge="1" parent="WIyWlLk6GJQsqaUBKTNV-1" target="U_fN0v2ja6Cd9X43y3oP-33">
          <mxGeometry relative="1" as="geometry">
            <mxPoint x="414" y="300" as="sourcePoint" />
            <Array as="points">
              <mxPoint x="414" y="260" />
              <mxPoint x="414" y="260" />
            </Array>
          </mxGeometry>
        </mxCell>
        <mxCell id="U_fN0v2ja6Cd9X43y3oP-32" value="" style="edgeStyle=orthogonalEdgeStyle;rounded=0;orthogonalLoop=1;jettySize=auto;html=1;" edge="1" parent="WIyWlLk6GJQsqaUBKTNV-1" source="U_fN0v2ja6Cd9X43y3oP-33" target="U_fN0v2ja6Cd9X43y3oP-35">
          <mxGeometry relative="1" as="geometry" />
        </mxCell>
        <mxCell id="U_fN0v2ja6Cd9X43y3oP-33" value="AX &lt;font size=&quot;1&quot;&gt;&amp;lt;&lt;/font&gt;---&amp;nbsp; AX + AX&lt;br&gt;AX&amp;nbsp;&lt;font style=&quot;font-size: 10px&quot;&gt;&amp;lt;&lt;/font&gt;&lt;font style=&quot;font-size: 12px&quot;&gt;---&lt;/font&gt;&amp;nbsp; AX + AX" style="rounded=1;whiteSpace=wrap;html=1;fontSize=12;glass=0;strokeWidth=1;shadow=0;" vertex="1" parent="WIyWlLk6GJQsqaUBKTNV-1">
          <mxGeometry x="339" y="290" width="150" height="40" as="geometry" />
        </mxCell>
        <mxCell id="U_fN0v2ja6Cd9X43y3oP-37" value="" style="edgeStyle=orthogonalEdgeStyle;rounded=0;orthogonalLoop=1;jettySize=auto;html=1;" edge="1" parent="WIyWlLk6GJQsqaUBKTNV-1" source="U_fN0v2ja6Cd9X43y3oP-35" target="U_fN0v2ja6Cd9X43y3oP-36">
          <mxGeometry relative="1" as="geometry" />
        </mxCell>
        <mxCell id="U_fN0v2ja6Cd9X43y3oP-35" value="DX&amp;nbsp;&lt;font style=&quot;font-size: 10px&quot;&gt;&amp;lt;&lt;/font&gt;&lt;font style=&quot;font-size: 13px&quot;&gt;---&lt;/font&gt;&amp;nbsp; AX&lt;br&gt;DX&amp;nbsp;&lt;font style=&quot;font-size: 10px&quot;&gt;&amp;lt;&lt;/font&gt;&lt;font style=&quot;font-size: 13px&quot;&gt;---&lt;/font&gt;&amp;nbsp; (-DX)" style="rounded=1;whiteSpace=wrap;html=1;fontSize=12;glass=0;strokeWidth=1;shadow=0;" vertex="1" parent="WIyWlLk6GJQsqaUBKTNV-1">
          <mxGeometry x="351.5" y="350" width="125" height="40" as="geometry" />
        </mxCell>
        <mxCell id="U_fN0v2ja6Cd9X43y3oP-38" style="edgeStyle=orthogonalEdgeStyle;rounded=0;orthogonalLoop=1;jettySize=auto;html=1;exitX=0.5;exitY=1;exitDx=0;exitDy=0;entryX=0.5;entryY=0;entryDx=0;entryDy=0;" edge="1" parent="WIyWlLk6GJQsqaUBKTNV-1" source="U_fN0v2ja6Cd9X43y3oP-36" target="U_fN0v2ja6Cd9X43y3oP-23">
          <mxGeometry relative="1" as="geometry" />
        </mxCell>
        <mxCell id="U_fN0v2ja6Cd9X43y3oP-36" value="AX &lt;font size=&quot;1&quot;&gt;&amp;lt;&lt;/font&gt;---&amp;nbsp; (-4)" style="rounded=1;whiteSpace=wrap;html=1;fontSize=12;glass=0;strokeWidth=1;shadow=0;" vertex="1" parent="WIyWlLk6GJQsqaUBKTNV-1">
          <mxGeometry x="190" y="355" width="120" height="30" as="geometry" />
        </mxCell>
      </root>
    </mxGraphModel>
  </diagram>
</mxfile>
